HIERARCHY
ROOT Hips
{
 OFFSET 0.000000 0.000000 0.000000
 CHANNELS 6 Xposition Yposition Zposition Yrotation Xrotation Zrotation
 JOINT Chest
 {
  OFFSET 0.000000 9.303000 0.001900
  CHANNELS 3 Yrotation Xrotation Zrotation
  JOINT Chest2
  {
   OFFSET 0.000000 9.301100 -0.003900
   CHANNELS 3 Yrotation Xrotation Zrotation
   JOINT Chest3
   {
    OFFSET 0.000000 9.262800 0.000000
    CHANNELS 3 Yrotation Xrotation Zrotation
    JOINT Chest4
    {
     OFFSET 0.000000 9.253300 0.000000
     CHANNELS 3 Yrotation Xrotation Zrotation
     JOINT Neck
     {
      OFFSET 0.000000 14.010300 0.000000
      CHANNELS 3 Yrotation Xrotation Zrotation
      JOINT Head
      {
       OFFSET 0.000000 8.657600 -0.008300
       CHANNELS 3 Yrotation Xrotation Zrotation
       End Site
       {
        OFFSET 0.000000 16.540200 -0.004400
       }
      }
     }
     JOINT RightCollar
     {
      OFFSET -2.834100 9.267700 0.000000
      CHANNELS 3 Yrotation Xrotation Zrotation
      JOINT RightShoulder
      {
       OFFSET -13.135200 0.000000 0.000000
       CHANNELS 3 Yrotation Xrotation Zrotation
       JOINT RightElbow
       {
        OFFSET 0.000000 -28.893500 0.000000
        CHANNELS 3 Yrotation Xrotation Zrotation
        JOINT RightWrist
        {
         OFFSET 0.000000 -23.344000 0.000000
         CHANNELS 3 Yrotation Xrotation Zrotation
         End Site
         {
          OFFSET 0.000000 -17.223000 0.000000
         }
        }
       }
      }
     }
     JOINT LeftCollar
     {
      OFFSET 2.834100 9.267700 0.000000
      CHANNELS 3 Yrotation Xrotation Zrotation
      JOINT LeftShoulder
      {
       OFFSET 13.135200 0.000000 0.000000
       CHANNELS 3 Yrotation Xrotation Zrotation
       JOINT LeftElbow
       {
        OFFSET 0.000000 -28.893500 0.000000
        CHANNELS 3 Yrotation Xrotation Zrotation
        JOINT LeftWrist
        {
         OFFSET 0.000000 -23.344000 0.000000
         CHANNELS 3 Yrotation Xrotation Zrotation
         End Site
         {
          OFFSET 0.000000 -17.223000 0.000000
         }
        }
       }
      }
     }
    }
   }
  }
 }
 JOINT RightHip
 {
  OFFSET -7.547200 -0.009500 -0.001000
  CHANNELS 3 Yrotation Xrotation Zrotation
  JOINT RightKnee
  {
   OFFSET 0.000000 -39.762800 0.000900
   CHANNELS 3 Yrotation Xrotation Zrotation
   JOINT RightAnkle
   {
    OFFSET 0.000000 -38.588200 0.001600
    CHANNELS 3 Yrotation Xrotation Zrotation
    JOINT RightToe
    {
     OFFSET 0.000000 -4.693300 10.419700
     CHANNELS 3 Yrotation Xrotation Zrotation
     End Site
     {
      OFFSET 0.000000 -1.379900 5.669300
     }
    }
   }
  }
 }
 JOINT LeftHip
 {
  OFFSET 7.547200 -0.009500 -0.001000
  CHANNELS 3 Yrotation Xrotation Zrotation
  JOINT LeftKnee
  {
   OFFSET 0.000000 -39.762800 0.000900
   CHANNELS 3 Yrotation Xrotation Zrotation
   JOINT LeftAnkle
   {
    OFFSET 0.000000 -38.588200 0.001600
    CHANNELS 3 Yrotation Xrotation Zrotation
    JOINT LeftToe
    {
     OFFSET 0.000000 -4.693300 10.419700
     CHANNELS 3 Yrotation Xrotation Zrotation
     End Site
     {
      OFFSET 0.000000 -1.379900 5.669300
     }
    }
   }
  }
 }
}
MOTION
Frames: 14
Frame Time: 0.008333
0.000000 82.880600 0.000000 0.000000 -5.767877 0.000000 0.000000 11.653817 0.000000 0.000000 -5.885947 0.000000 0.000000 -0.000000 0.000000 0.000000 -0.000000 0.000000 0.000000 12.528835 0.000000 0.000000 0.711642 0.000000 0.000000 -0.000000 0.000000 0.000000 0.000000 -90.000000 0.000000 -2.309062 0.000000 0.000000 2.309062 0.000000 0.000000 -0.000000 0.000000 0.000000 -0.000000 90.000000 0.000000 -2.309062 0.000000 0.000000 2.309062 0.000000 0.000000 8.520406 0.000000 0.000000 1.905762 0.000000 -0.000000 -4.658285 0.000000 0.000000 -0.000000 0.000000 0.000000 8.520406 0.000000 0.000000 1.905762 0.000000 -0.000000 -4.658285 0.000000 0.000000 -0.000000 0.000000
4.931738 45.941833 4.483627 166.378724 -11.526896 0.264598 2.360171 7.952429 0.219762 0.119879 0.396096 0.017698 0.209254 0.690929 0.031352 2.298869 7.478876 0.477348 -1.695456 22.872993 -0.172220 -1.777260 -1.192453 0.199680 1.606701 4.252251 -5.002252 -3.701365 -6.332453 -2.377724 -82.613668 -79.403608 102.339517 -8.699088 -1.984607 -23.808339 -8.591855 2.604213 -2.821534 14.863078 -5.981833 9.293944 61.322618 -66.915496 -89.567102 6.598768 -0.042540 14.558420 -18.564001 -76.653787 12.345079 -112.609704 85.677395 -114.101447 -6.508170 -7.794442 -1.046536 0.064943 -0.209743 0.015651 -4.872479 -75.316055 22.444923 83.338515 76.006159 81.518013 -10.082214 -6.449295 0.269233 0.050259 0.349238 0.017039
4.932790 45.942423 4.481773 166.374684 -11.538547 0.267222 2.355376 7.961912 0.215469 0.121868 0.397768 0.018959 0.209139 0.691521 0.031484 2.297520 7.481965 0.477722 -1.693509 22.880119 -0.171379 -1.778133 -1.184641 0.202771 1.616087 4.253394 -5.001251 -3.710107 -6.324873 -2.378086 -82.534096 -79.386476 102.259349 -8.682222 -1.996769 -23.798454 -8.582186 2.601175 -2.824822 14.872347 -5.964431 9.289971 61.328624 -66.919461 -89.584634 6.592921 -0.046183 14.559353 -18.580309 -76.639706 12.352927 -112.670107 85.682363 -114.156802 -6.497467 -7.803734 -1.056929 0.123871 -0.206347 0.014508 -4.861623 -75.303040 22.435315 83.350724 76.004608 81.529388 -10.074940 -6.453876 0.271092 0.043589 0.349345 0.015520
4.935102 45.942969 4.480500 166.373133 -11.548055 0.262315 2.355639 7.969894 0.219653 0.119884 0.396914 0.017816 0.209162 0.692216 0.031513 2.296423 7.486051 0.478458 -1.689861 22.883002 -0.169569 -1.778546 -1.180677 0.204556 1.625414 4.255057 -4.999323 -3.716686 -6.322935 -2.377824 -82.502293 -79.381374 102.223694 -8.679760 -1.997378 -23.794540 -8.578622 2.597743 -2.827152 14.876593 -5.959341 9.289795 61.312854 -66.912490 -89.574457 6.600427 -0.041693 14.553840 -18.631031 -76.624458 12.389413 -112.682491 85.682456 -114.151158 -6.494443 -7.812179 -1.086080 0.119580 -0.207373 0.024335 -4.878332 -75.292221 22.453668 83.354756 76.010134 81.532166 -10.063094 -6.459354 0.277605 0.039049 0.351645 0.010778
4.939126 45.943410 4.480215 166.351675 -11.553335 0.250959 2.377616 7.974398 0.234329 0.119225 0.405331 0.017601 0.209840 0.685278 0.031539 2.296004 7.491141 0.477351 -1.688419 22.883388 -0.166816 -1.778891 -1.176465 0.206159 1.631394 4.253696 -4.997766 -3.721867 -6.321208 -2.375089 -82.503061 -79.381206 102.222738 -8.687625 -1.980359 -23.811889 -8.579111 2.592677 -2.831478 14.878521 -5.956399 9.291390 61.293032 -66.902907 -89.562568 6.598274 -0.045605 14.554952 -18.709025 -76.610690 12.478657 -112.715713 85.689362 -114.189535 -6.435235 -7.835947 -1.086178 0.101408 -0.184852 0.014915 -4.907722 -75.284196 22.505028 83.353233 76.005033 81.530852 -10.048232 -6.423242 0.285243 0.021200 0.312965 0.002757
4.941896 45.943740 4.480530 166.348918 -11.552400 0.243546 2.377405 7.990808 0.241600 0.119892 0.399042 0.017773 0.209195 0.695770 0.031623 2.297151 7.481748 0.475970 -1.687929 22.914992 -0.158016 -1.776948 -1.194952 0.202782 1.635981 4.243790 -4.998801 -3.728906 -6.302443 -2.369844 -82.573891 -79.385475 102.299353 -8.693500 -1.969883 -23.824635 -8.578946 2.581272 -2.837891 14.882501 -5.949843 9.292013 61.275088 -66.890027 -89.554469 6.594548 -0.052187 14.556030 -18.782120 -76.606262 12.535768 -112.794730 85.697421 -114.267784 -6.361532 -7.837157 -1.101855 0.075610 -0.187322 0.014651 -4.938438 -75.285617 22.539903 83.367684 76.000616 81.544542 -10.046446 -6.425260 0.285013 0.013846 0.312461 0.003453
4.943200 45.944432 4.479412 166.351900 -11.557254 0.246593 2.364302 8.008956 0.237807 0.119828 0.400475 0.017929 0.215896 0.688930 0.030662 2.297121 7.496035 0.476216 -1.686373 22.906763 -0.155087 -1.770984 -1.161126 0.216814 1.640028 4.224149 -5.001846 -3.734121 -6.291291 -2.366418 -82.536279 -79.383749 102.259315 -8.688301 -1.979539 -23.819885 -8.576878 2.559826 -2.847731 14.884593 -5.947373 9.289820 61.239275 -66.871689 -89.523316 6.589276 -0.058687 14.555199 -18.809982 -76.600337 12.545529 -112.887399 85.703304 -114.351856 -6.375289 -7.845733 -1.110149 0.078422 -0.187776 0.017030 -4.930320 -75.279913 22.531794 83.369547 76.001715 81.544004 -10.054593 -6.425252 0.284677 0.019423 0.311177 0.005345
4.943281 45.945201 4.478772 166.364284 -11.556723 0.254706 2.335445 8.024259 0.227588 0.119642 0.402118 0.018126 0.225690 0.680436 0.028656 2.269375 7.547523 0.486461 -1.661772 22.862212 -0.165629 -1.762912 -1.144298 0.229316 1.682959 4.173723 -5.038105 -3.746119 -6.285837 -2.345738 -82.498668 -79.383850 102.222871 -8.684772 -1.990893 -23.822421 -8.549814 2.498595 -2.868445 14.892931 -5.934421 9.278595 61.201778 -66.857738 -89.491838 6.587085 -0.066656 14.557393 -18.830894 -76.601376 12.527666 -112.916899 85.699881 -114.363042 -6.367749 -7.832637 -1.142756 0.095043 -0.210493 0.028254 -4.890081 -75.280018 22.480942 83.359089 76.001562 81.534830 -10.063941 -6.471657 0.279097 0.028138 0.356358 0.012407
4.944719 45.946598 4.477164 166.356794 -11.563768 0.259817 2.329091 8.044277 0.225338 0.124143 0.398549 0.017016 0.198755 0.714831 0.034466 2.270425 7.554389 0.486328 -1.642076 22.843630 -0.166954 -1.751473 -1.165666 0.222545 1.734013 4.129883 -5.070728 -3.764215 -6.281901 -2.327425 -82.408240 -79.378784 102.125956 -8.686590 -1.993078 -23.831371 -8.521878 2.447452 -2.882322 14.896528 -5.933567 9.281404 61.136673 -66.804701 -89.435585 6.590594 -0.081483 14.567625 -18.849311 -76.591045 12.532554 -112.963475 85.703925 -114.399398 -6.377441 -7.844212 -1.143939 0.095707 -0.207736 0.016503 -4.850600 -75.270251 22.453999 83.349421 76.007383 81.525939 -10.065365 -6.475115 0.277684 0.026610 0.356346 0.014795
4.946187 45.948240 4.476578 166.353014 -11.565199 0.261439 2.311805 8.065868 0.223446 0.135492 0.388311 0.017706 0.187190 0.731100 0.034570 2.269246 7.562399 0.487985 -1.630152 22.839053 -0.159253 -1.740904 -1.187857 0.213129 1.788248 4.103544 -5.103517 -3.795672 -6.276795 -2.302965 -82.238603 -79.371416 101.949556 -8.688163 -2.001601 -23.829021 -8.508332 2.413035 -2.893550 14.887948 -5.923499 9.268928 61.053382 -66.736438 -89.355064 6.598833 -0.106674 14.592343 -18.863412 -76.586936 12.540866 -112.972188 85.705724 -114.401542 -6.394569 -7.848209 -1.144710 0.090469 -0.209169 0.013961 -4.845678 -75.266887 22.458153 83.342585 76.011023 81.516057 -10.068080 -6.470136 0.272789 0.025352 0.351694 0.016570
4.947515 45.950346 4.476260 166.345021 -11.566587 0.262338 2.289834 8.096406 0.220574 0.145629 0.382128 0.019124 0.182800 0.740302 0.033490 2.285310 7.542257 0.486734 -1.633066 22.847919 -0.146632 -1.715555 -1.268542 0.232799 1.844618 4.100391 -5.141409 -3.827649 -6.258632 -2.269448 -81.803799 -79.339700 101.500949 -8.684127 -2.030098 -23.863294 -8.521593 2.395961 -2.916902 14.838032 -5.896821 9.242618 60.962644 -66.634483 -89.229422 6.616647 -0.146400 14.637865 -18.876609 -76.582408 12.552868 -112.963833 85.709802 -114.386141 -6.412153 -7.847839 -1.147035 0.085586 -0.212926 0.012663 -4.852931 -75.262307 22.481110 83.340179 76.016792 81.508215 -10.080726 -6.465092 0.267006 0.040106 0.346460 0.020717
4.952583 45.953783 4.472706 166.306260 -11.596478 0.248923 2.291961 8.158222 0.242762 0.120042 0.413857 0.019407 0.209262 0.721025 0.034329 2.261614 7.623439 0.499828 -1.587612 22.727974 -0.159194 -1.701008 -1.385277 0.247680 1.969716 3.983346 -5.228124 -3.866976 -6.232817 -2.217745 -81.344738 -79.301689 101.030279 -8.677881 -2.069723 -23.910389 -8.494660 2.256518 -2.942527 14.763762 -5.879497 9.222042 60.821008 -66.393341 -89.052897 6.652056 -0.203009 14.715920 -18.928504 -76.538910 12.618094 -112.929577 85.708118 -114.329243 -6.406519 -7.856344 -1.176038 0.095304 -0.214596 0.012827 -4.903535 -75.225664 22.579811 83.372248 76.015749 81.538773 -10.077368 -6.472850 0.236498 0.036662 0.344778 0.039882
4.953495 45.957439 4.469151 166.273103 -11.625017 0.256127 2.251993 8.228915 0.255571 0.119182 0.420356 0.020682 0.207740 0.732157 0.036548 2.225121 7.706582 0.521718 -1.562675 22.583144 -0.156624 -1.643487 -1.536031 0.188600 2.166987 3.843878 -5.374317 -3.849413 -6.185162 -2.169711 -80.844168 -79.222068 100.454080 -8.665019 -2.133839 -23.986328 -8.425953 2.100261 -2.990475 14.642237 -5.878914 9.207109 60.648154 -65.925632 -88.860187 6.715843 -0.269711 14.859823 -18.924010 -76.499575 12.605426 -112.968140 85.729311 -114.359944 -6.371065 -7.873023 -1.192292 0.063449 -0.204906 0.003209 -4.872975 -75.191991 22.587543 83.398956 76.005769 81.558637 -10.088290 -6.471046 0.230528 0.034869 0.336043 0.043306
4.955963 45.961348 4.465692 166.244839 -11.661016 0.250289 2.172124 8.310920 0.297094 0.116801 0.428799 0.023039 0.203555 0.746589 0.040660 2.164770 7.788239 0.559056 -1.512208 22.420072 -0.204479 -1.577089 -1.730375 0.125836 2.462215 3.681569 -5.605729 -3.896747 -6.143262 -2.107316 -79.787010 -79.047017 99.383897 -8.641670 -2.233868 -24.126084 -8.376667 1.934940 -3.033561 14.546835 -5.907171 9.148877 60.420508 -65.150517 -88.646346 6.838592 -0.341990 15.109332 -18.897944 -76.457261 12.595237 -112.944960 85.726925 -114.325928 -6.357244 -7.873025 -1.204237 0.057252 -0.209707 0.007144 -4.880749 -75.152483 22.625837 83.437117 75.950946 81.601093 -10.140130 -6.466215 0.214416 0.035431 0.326929 0.048112
